<svg width="20" height="20" viewBox="0 0 20 20" fill="none" xmlns="http://www.w3.org/2000/svg">
<path fillRule="evenodd" clipRule="evenodd" d="M4.73793 0.250001H4.84102C5.69024 0.24997 6.40232 0.249945 6.96845 0.32606C7.56758 0.406611 8.11427 0.584573 8.55433 1.02463C8.99438 1.46468 9.17234 2.01137 9.25289 2.6105C9.32901 3.17663 9.32898 3.8887 9.32895 4.73791V4.84105C9.32898 5.69026 9.32901 6.40232 9.25289 6.96845C9.17234 7.56758 8.99438 8.11427 8.55433 8.55433C8.11427 8.99438 7.56758 9.17234 6.96845 9.25289C6.40232 9.32901 5.69026 9.32898 4.84105 9.32895H4.73791C3.8887 9.32898 3.17663 9.32901 2.6105 9.25289C2.01137 9.17234 1.46468 8.99438 1.02463 8.55433C0.584573 8.11427 0.406611 7.56758 0.32606 6.96845C0.249945 6.40232 0.24997 5.69024 0.250001 4.84102V4.73793C0.24997 3.88871 0.249945 3.17664 0.32606 2.6105C0.406611 2.01137 0.584573 1.46468 1.02463 1.02463C1.46468 0.584573 2.01137 0.406611 2.6105 0.32606C3.17664 0.249945 3.88871 0.24997 4.73793 0.250001ZM2.81037 1.81268C2.37757 1.87087 2.20019 1.97039 2.08529 2.08529C1.97039 2.20019 1.87087 2.37757 1.81268 2.81037C1.7516 3.26474 1.75 3.87509 1.75 4.78948C1.75 5.70387 1.7516 6.31421 1.81268 6.76858C1.87087 7.20138 1.97039 7.37876 2.08529 7.49366C2.20019 7.60857 2.37757 7.70808 2.81037 7.76627C3.26474 7.82736 3.87509 7.82895 4.78948 7.82895C5.70387 7.82895 6.31421 7.82736 6.76858 7.76627C7.20138 7.70808 7.37876 7.60857 7.49366 7.49366C7.60857 7.37876 7.70808 7.20138 7.76627 6.76858C7.82736 6.31421 7.82895 5.70387 7.82895 4.78948C7.82895 3.87509 7.82736 3.26474 7.76627 2.81037C7.70808 2.37757 7.60857 2.20019 7.49366 2.08529C7.37876 1.97039 7.20138 1.87087 6.76858 1.81268C6.31421 1.7516 5.70387 1.75 4.78948 1.75C3.87509 1.75 3.26474 1.7516 2.81037 1.81268Z" fill="#fff"/>
<path fillRule="evenodd" clipRule="evenodd" d="M15.1588 10.671H15.2619C16.1111 10.671 16.8232 10.671 17.3894 10.7471C17.9885 10.8276 18.5352 11.0056 18.9752 11.4456C19.4153 11.8857 19.5932 12.4324 19.6738 13.0315C19.7499 13.5977 19.7499 14.3097 19.7499 15.1589V15.2621C19.7499 16.1113 19.7499 16.8233 19.6738 17.3895C19.5932 17.9886 19.4153 18.5353 18.9752 18.9753C18.5352 19.4154 17.9885 19.5934 17.3894 19.6739C16.8232 19.75 16.1112 19.75 15.2619 19.75H15.1588C14.3096 19.75 13.5975 19.75 13.0314 19.6739C12.4323 19.5934 11.8856 19.4154 11.4455 18.9753C11.0055 18.5353 10.8275 17.9886 10.747 17.3895C10.6708 16.8233 10.6709 16.1113 10.6709 15.262V15.159C10.6709 14.3097 10.6708 13.5977 10.747 13.0315C10.8275 12.4324 11.0055 11.8857 11.4455 11.4456C11.8856 11.0056 12.4323 10.8276 13.0314 10.7471C13.5975 10.671 14.3096 10.671 15.1588 10.671ZM13.2313 12.2337C12.7985 12.2919 12.6211 12.3914 12.5062 12.5063C12.3913 12.6212 12.2918 12.7986 12.2336 13.2314C12.1725 13.6858 12.1709 14.2961 12.1709 15.2105C12.1709 16.1249 12.1725 16.7352 12.2336 17.1896C12.2918 17.6224 12.3913 17.7998 12.5062 17.9147C12.6211 18.0296 12.7985 18.1291 13.2313 18.1873C13.6856 18.2484 14.296 18.25 15.2104 18.25C16.1248 18.25 16.7351 18.2484 17.1895 18.1873C17.6223 18.1291 17.7997 18.0296 17.9146 17.9147C18.0295 17.7998 18.129 17.6224 18.1872 17.1896C18.2483 16.7352 18.2498 16.1249 18.2498 15.2105C18.2498 14.2961 18.2483 13.6858 18.1872 13.2314C18.129 12.7986 18.0295 12.6212 17.9146 12.5063C17.7997 12.3914 17.6223 12.2919 17.1895 12.2337C16.7351 12.1726 16.1248 12.171 15.2104 12.171C14.296 12.171 13.6856 12.1726 13.2313 12.2337Z" fill="#fff"/>
<path fillRule="evenodd" clipRule="evenodd" d="M4.73793 10.671H4.84102C5.69024 10.671 6.40232 10.671 6.96845 10.7471C7.56758 10.8276 8.11427 11.0056 8.55433 11.4456C8.99438 11.8857 9.17234 12.4324 9.25289 13.0315C9.32901 13.5977 9.32898 14.3097 9.32895 15.1589V15.2621C9.32898 16.1113 9.32901 16.8233 9.25289 17.3895C9.17234 17.9886 8.99438 18.5353 8.55433 18.9753C8.11427 19.4154 7.56758 19.5934 6.96845 19.6739C6.40232 19.75 5.69026 19.75 4.84105 19.75H4.73791C3.8887 19.75 3.17663 19.75 2.6105 19.6739C2.01137 19.5934 1.46468 19.4154 1.02463 18.9753C0.584573 18.5353 0.406611 17.9886 0.32606 17.3895C0.249945 16.8233 0.24997 16.1113 0.250001 15.262V15.159C0.24997 14.3097 0.249945 13.5977 0.32606 13.0315C0.406611 12.4324 0.584573 11.8857 1.02463 11.4456C1.46468 11.0056 2.01137 10.8276 2.6105 10.7471C3.17664 10.671 3.88871 10.671 4.73793 10.671ZM2.81037 12.2337C2.37757 12.2919 2.20019 12.3914 2.08529 12.5063C1.97039 12.6212 1.87087 12.7986 1.81268 13.2314C1.7516 13.6858 1.75 14.2961 1.75 15.2105C1.75 16.1249 1.7516 16.7352 1.81268 17.1896C1.87087 17.6224 1.97039 17.7998 2.08529 17.9147C2.20019 18.0296 2.37757 18.1291 2.81037 18.1873C3.26474 18.2484 3.87509 18.25 4.78948 18.25C5.70387 18.25 6.31421 18.2484 6.76858 18.1873C7.20138 18.1291 7.37876 18.0296 7.49366 17.9147C7.60857 17.7998 7.70808 17.6224 7.76627 17.1896C7.82736 16.7352 7.82895 16.1249 7.82895 15.2105C7.82895 14.2961 7.82736 13.6858 7.76627 13.2314C7.70808 12.7986 7.60857 12.6212 7.49366 12.5063C7.37876 12.3914 7.20138 12.2919 6.76858 12.2337C6.31421 12.1726 5.70387 12.171 4.78948 12.171C3.87509 12.171 3.26474 12.1726 2.81037 12.2337Z" fill="#fff"/>
<path fillRule="evenodd" clipRule="evenodd" d="M15.1588 0.250001H15.2619C16.1111 0.24997 16.8232 0.249945 17.3894 0.32606C17.9885 0.406611 18.5352 0.584573 18.9752 1.02463C19.4153 1.46468 19.5932 2.01137 19.6738 2.6105C19.7499 3.17663 19.7499 3.8887 19.7499 4.73791V4.84105C19.7499 5.69026 19.7499 6.40232 19.6738 6.96845C19.5932 7.56758 19.4153 8.11427 18.9752 8.55433C18.5352 8.99438 17.9885 9.17234 17.3894 9.25289C16.8232 9.32901 16.1112 9.32898 15.2619 9.32895H15.1588C14.3096 9.32898 13.5975 9.32901 13.0314 9.25289C12.4323 9.17234 11.8856 8.99438 11.4455 8.55433C11.0055 8.11427 10.8275 7.56758 10.747 6.96845C10.6708 6.40232 10.6709 5.69024 10.6709 4.84102V4.73793C10.6709 3.88871 10.6708 3.17664 10.747 2.6105C10.8275 2.01137 11.0055 1.46468 11.4455 1.02463C11.8856 0.584573 12.4323 0.406611 13.0314 0.32606C13.5975 0.249945 14.3096 0.24997 15.1588 0.250001ZM13.2313 1.81268C12.7985 1.87087 12.6211 1.97039 12.5062 2.08529C12.3913 2.20019 12.2918 2.37757 12.2336 2.81037C12.1725 3.26474 12.1709 3.87509 12.1709 4.78948C12.1709 5.70387 12.1725 6.31421 12.2336 6.76858C12.2918 7.20138 12.3913 7.37876 12.5062 7.49366C12.6211 7.60857 12.7985 7.70808 13.2313 7.76627C13.6856 7.82736 14.296 7.82895 15.2104 7.82895C16.1248 7.82895 16.7351 7.82736 17.1895 7.76627C17.6223 7.70808 17.7997 7.60857 17.9146 7.49366C18.0295 7.37876 18.129 7.20138 18.1872 6.76858C18.2483 6.31421 18.2498 5.70387 18.2498 4.78948C18.2498 3.87509 18.2483 3.26474 18.1872 2.81037C18.129 2.37757 18.0295 2.20019 17.9146 2.08529C17.7997 1.97039 17.6223 1.87087 17.1895 1.81268C16.7351 1.7516 16.1248 1.75 15.2104 1.75C14.296 1.75 13.6856 1.7516 13.2313 1.81268Z" fill="#fff"/>
</svg>
