<svg width="24" height="24" viewBox="0 0 24 24" fill="none" xmlns="http://www.w3.org/2000/svg">
<path fillRule="evenodd" clipRule="evenodd" d="M6.73793 2.25H6.84102C7.69024 2.24997 8.40232 2.24994 8.96845 2.32606C9.56758 2.40661 10.1143 2.58457 10.5543 3.02463C10.9944 3.46468 11.1723 4.01137 11.2529 4.6105C11.329 5.17663 11.329 5.8887 11.329 6.73791V6.84105C11.329 7.69026 11.329 8.40232 11.2529 8.96845C11.1723 9.56758 10.9944 10.1143 10.5543 10.5543C10.1143 10.9944 9.56758 11.1723 8.96845 11.2529C8.40232 11.329 7.69026 11.329 6.84105 11.329H6.73791C5.8887 11.329 5.17663 11.329 4.6105 11.2529C4.01137 11.1723 3.46468 10.9944 3.02463 10.5543C2.58457 10.1143 2.40661 9.56758 2.32606 8.96845C2.24994 8.40232 2.24997 7.69024 2.25 6.84102V6.73793C2.24997 5.88871 2.24994 5.17664 2.32606 4.6105C2.40661 4.01137 2.58457 3.46468 3.02463 3.02463C3.46468 2.58457 4.01137 2.40661 4.6105 2.32606C5.17664 2.24994 5.88871 2.24997 6.73793 2.25ZM4.81037 3.81268C4.37757 3.87087 4.20019 3.97039 4.08529 4.08529C3.97039 4.20019 3.87087 4.37757 3.81268 4.81037C3.7516 5.26474 3.75 5.87509 3.75 6.78948C3.75 7.70387 3.7516 8.31421 3.81268 8.76858C3.87087 9.20138 3.97039 9.37876 4.08529 9.49366C4.20019 9.60857 4.37757 9.70808 4.81037 9.76627C5.26474 9.82736 5.87509 9.82895 6.78948 9.82895C7.70387 9.82895 8.31421 9.82736 8.76858 9.76627C9.20138 9.70808 9.37876 9.60857 9.49366 9.49366C9.60857 9.37876 9.70808 9.20138 9.76627 8.76858C9.82736 8.31421 9.82895 7.70387 9.82895 6.78948C9.82895 5.87509 9.82736 5.26474 9.76627 4.81037C9.70808 4.37757 9.60857 4.20019 9.49366 4.08529C9.37876 3.97039 9.20138 3.87087 8.76858 3.81268C8.31421 3.7516 7.70387 3.75 6.78948 3.75C5.87509 3.75 5.26474 3.7516 4.81037 3.81268Z" fill="#fff"/>
<path fillRule="evenodd" clipRule="evenodd" d="M17.1588 12.671H17.2619C18.1111 12.671 18.8232 12.671 19.3894 12.7471C19.9885 12.8276 20.5352 13.0056 20.9752 13.4456C21.4153 13.8857 21.5932 14.4324 21.6738 15.0315C21.7499 15.5977 21.7499 16.3097 21.7499 17.1589V17.2621C21.7499 18.1113 21.7499 18.8233 21.6738 19.3895C21.5932 19.9886 21.4153 20.5353 20.9752 20.9753C20.5352 21.4154 19.9885 21.5934 19.3894 21.6739C18.8232 21.75 18.1112 21.75 17.2619 21.75H17.1588C16.3096 21.75 15.5975 21.75 15.0314 21.6739C14.4323 21.5934 13.8856 21.4154 13.4455 20.9753C13.0055 20.5353 12.8275 19.9886 12.747 19.3895C12.6708 18.8233 12.6709 18.1113 12.6709 17.262V17.159C12.6709 16.3097 12.6708 15.5977 12.747 15.0315C12.8275 14.4324 13.0055 13.8857 13.4455 13.4456C13.8856 13.0056 14.4323 12.8276 15.0314 12.7471C15.5975 12.671 16.3096 12.671 17.1588 12.671ZM15.2313 14.2337C14.7985 14.2919 14.6211 14.3914 14.5062 14.5063C14.3913 14.6212 14.2918 14.7986 14.2336 15.2314C14.1725 15.6858 14.1709 16.2961 14.1709 17.2105C14.1709 18.1249 14.1725 18.7352 14.2336 19.1896C14.2918 19.6224 14.3913 19.7998 14.5062 19.9147C14.6211 20.0296 14.7985 20.1291 15.2313 20.1873C15.6856 20.2484 16.296 20.25 17.2104 20.25C18.1248 20.25 18.7351 20.2484 19.1895 20.1873C19.6223 20.1291 19.7997 20.0296 19.9146 19.9147C20.0295 19.7998 20.129 19.6224 20.1872 19.1896C20.2483 18.7352 20.2498 18.1249 20.2498 17.2105C20.2498 16.2961 20.2483 15.6858 20.1872 15.2314C20.129 14.7986 20.0295 14.6212 19.9146 14.5063C19.7997 14.3914 19.6223 14.2919 19.1895 14.2337C18.7351 14.1726 18.1248 14.171 17.2104 14.171C16.296 14.171 15.6856 14.1726 15.2313 14.2337Z" fill="#fff"/>
<path fillRule="evenodd" clipRule="evenodd" d="M6.73793 12.671H6.84102C7.69024 12.671 8.40232 12.671 8.96845 12.7471C9.56758 12.8276 10.1143 13.0056 10.5543 13.4456C10.9944 13.8857 11.1723 14.4324 11.2529 15.0315C11.329 15.5977 11.329 16.3097 11.329 17.1589V17.2621C11.329 18.1113 11.329 18.8233 11.2529 19.3895C11.1723 19.9886 10.9944 20.5353 10.5543 20.9753C10.1143 21.4154 9.56758 21.5934 8.96845 21.6739C8.40232 21.75 7.69026 21.75 6.84105 21.75H6.73791C5.8887 21.75 5.17663 21.75 4.6105 21.6739C4.01137 21.5934 3.46468 21.4154 3.02463 20.9753C2.58457 20.5353 2.40661 19.9886 2.32606 19.3895C2.24994 18.8233 2.24997 18.1113 2.25 17.262V17.159C2.24997 16.3097 2.24994 15.5977 2.32606 15.0315C2.40661 14.4324 2.58457 13.8857 3.02463 13.4456C3.46468 13.0056 4.01137 12.8276 4.6105 12.7471C5.17664 12.671 5.88871 12.671 6.73793 12.671ZM4.81037 14.2337C4.37757 14.2919 4.20019 14.3914 4.08529 14.5063C3.97039 14.6212 3.87087 14.7986 3.81268 15.2314C3.7516 15.6858 3.75 16.2961 3.75 17.2105C3.75 18.1249 3.7516 18.7352 3.81268 19.1896C3.87087 19.6224 3.97039 19.7998 4.08529 19.9147C4.20019 20.0296 4.37757 20.1291 4.81037 20.1873C5.26474 20.2484 5.87509 20.25 6.78948 20.25C7.70387 20.25 8.31421 20.2484 8.76858 20.1873C9.20138 20.1291 9.37876 20.0296 9.49366 19.9147C9.60857 19.7998 9.70808 19.6224 9.76627 19.1896C9.82736 18.7352 9.82895 18.1249 9.82895 17.2105C9.82895 16.2961 9.82736 15.6858 9.76627 15.2314C9.70808 14.7986 9.60857 14.6212 9.49366 14.5063C9.37876 14.3914 9.20138 14.2919 8.76858 14.2337C8.31421 14.1726 7.70387 14.171 6.78948 14.171C5.87509 14.171 5.26474 14.1726 4.81037 14.2337Z" fill="#fff"/>
<path fillRule="evenodd" clipRule="evenodd" d="M17.1588 2.25H17.2619C18.1111 2.24997 18.8232 2.24994 19.3894 2.32606C19.9885 2.40661 20.5352 2.58457 20.9752 3.02463C21.4153 3.46468 21.5932 4.01137 21.6738 4.6105C21.7499 5.17663 21.7499 5.8887 21.7499 6.73791V6.84105C21.7499 7.69026 21.7499 8.40232 21.6738 8.96845C21.5932 9.56758 21.4153 10.1143 20.9752 10.5543C20.5352 10.9944 19.9885 11.1723 19.3894 11.2529C18.8232 11.329 18.1112 11.329 17.2619 11.329H17.1588C16.3096 11.329 15.5975 11.329 15.0314 11.2529C14.4323 11.1723 13.8856 10.9944 13.4455 10.5543C13.0055 10.1143 12.8275 9.56758 12.747 8.96845C12.6708 8.40232 12.6709 7.69024 12.6709 6.84102V6.73793C12.6709 5.88871 12.6708 5.17664 12.747 4.6105C12.8275 4.01137 13.0055 3.46468 13.4455 3.02463C13.8856 2.58457 14.4323 2.40661 15.0314 2.32606C15.5975 2.24994 16.3096 2.24997 17.1588 2.25ZM15.2313 3.81268C14.7985 3.87087 14.6211 3.97039 14.5062 4.08529C14.3913 4.20019 14.2918 4.37757 14.2336 4.81037C14.1725 5.26474 14.1709 5.87509 14.1709 6.78948C14.1709 7.70387 14.1725 8.31421 14.2336 8.76858C14.2918 9.20138 14.3913 9.37876 14.5062 9.49366C14.6211 9.60857 14.7985 9.70808 15.2313 9.76627C15.6856 9.82736 16.296 9.82895 17.2104 9.82895C18.1248 9.82895 18.7351 9.82736 19.1895 9.76627C19.6223 9.70808 19.7997 9.60857 19.9146 9.49366C20.0295 9.37876 20.129 9.20138 20.1872 8.76858C20.2483 8.31421 20.2498 7.70387 20.2498 6.78948C20.2498 5.87509 20.2483 5.26474 20.1872 4.81037C20.129 4.37757 20.0295 4.20019 19.9146 4.08529C19.7997 3.97039 19.6223 3.87087 19.1895 3.81268C18.7351 3.7516 18.1248 3.75 17.2104 3.75C16.296 3.75 15.6856 3.7516 15.2313 3.81268Z" fill="#fff"/>
</svg>
