<svg width="24" height="24" viewBox="0 0 24 24" fill="none" xmlns="http://www.w3.org/2000/svg">
<path fillRule="evenodd" clipRule="evenodd" d="M1.25 12.2312C1.25 6.2233 6.00687 1.25 12 1.25C17.9931 1.25 22.75 6.2233 22.75 12.2312C22.75 13.9741 22.351 15.6295 21.6373 17.1011C21.4693 17.4476 21.1682 17.973 20.9248 18.387L21.6168 19.8482C22.255 21.196 21.2725 22.75 19.7803 22.75H12C6.16761 22.75 1.25 18.3981 1.25 12.2312ZM12 2.75C6.87445 2.75 2.75 7.01203 2.75 12.2312C2.75 17.4983 6.92288 21.25 12 21.25H19.7803C20.1708 21.25 20.4283 20.8433 20.2611 20.4902L19.227 18.3066L19.4325 17.9628C19.6892 17.5331 20.1014 16.8306 20.2877 16.4465C20.9041 15.1755 21.25 13.7436 21.25 12.2312C21.25 7.01203 17.1256 2.75 12 2.75Z" fill="#fff"/>
<path d="M12.0002 12.3501C11.7948 12.3501 11.6853 12.4366 11.6002 12.5501C11.5303 12.6433 11.4867 12.7561 11.4769 12.7867C11.3602 13.1497 10.9923 13.4338 10.5683 13.3278C10.1664 13.2273 9.92211 12.8201 10.0226 12.4182C10.0954 12.1414 10.2286 11.8788 10.4002 11.65C10.69 11.2635 11.2055 10.85 12.0002 10.85C12.7948 10.85 13.3103 11.2635 13.6002 11.65C13.7701 11.8766 13.9071 12.1412 13.9774 12.4168C14.077 12.8138 13.8295 13.2284 13.4321 13.3278C13.0039 13.4338 12.6367 13.1564 12.5247 12.7902C12.4954 12.7051 12.4542 12.6222 12.4002 12.5501C12.315 12.4366 12.2055 12.3501 12.0002 12.3501Z" fill="#fff"/>
<path fillRule="evenodd" clipRule="evenodd" d="M6.25 10.5C6.25 10.0858 6.58579 9.75 7 9.75H9C9.41421 9.75 9.75 10.0858 9.75 10.5C9.75 10.9142 9.41421 11.25 9 11.25H7C6.58579 11.25 6.25 10.9142 6.25 10.5Z" fill="#fff"/>
<path fillRule="evenodd" clipRule="evenodd" d="M10.0857 14.8292C10.494 15.0333 11.1298 15.25 12.0003 15.25C12.8707 15.25 13.5065 15.0333 13.9148 14.8292C14.2729 14.6501 14.4621 14.4766 14.4754 14.4642C14.7687 14.1768 15.2395 14.1786 15.5305 14.4697C15.8519 14.7891 15.852 15.2107 15.5283 15.5326C15.2594 15.7983 14.9213 16.003 14.5856 16.1708C13.9939 16.4667 13.1298 16.75 12.0003 16.75C10.8707 16.75 10.0066 16.4667 9.41489 16.1708C8.97286 15.9498 8.68689 15.7243 8.55332 15.6074C8.20751 15.3048 8.19935 14.8008 8.53916 14.4688" fill="#fff"/>
<path d="M10.0857 14.8292C9.88184 14.7272 9.70248 14.5972 9.51642 14.4682C9.20926 14.2554 8.87378 14.1138 8.53916 14.4688C8.19935 14.8008 8.20751 15.3048 8.55332 15.6074C8.68689 15.7243 8.97286 15.9498 9.41489 16.1708C10.0066 16.4667 10.8707 16.75 12.0003 16.75C13.1298 16.75 13.9939 16.4667 14.5856 16.1708C14.9213 16.003 15.2594 15.7983 15.5283 15.5326C15.852 15.2107 15.8519 14.7891 15.5305 14.4697C15.2395 14.1786 14.7687 14.1768 14.4754 14.4642C14.4621 14.4766 14.2729 14.6501 13.9148 14.8292C13.5065 15.0333 12.8707 15.25 12.0003 15.25C11.1298 15.25 10.494 15.0333 10.0857 14.8292Z" fill="#fff"/>
<path fillRule="evenodd" clipRule="evenodd" d="M14.25 10.5C14.25 10.0858 14.5858 9.75 15 9.75H17C17.4142 9.75 17.75 10.0858 17.75 10.5C17.75 10.9142 17.4142 11.25 17 11.25H15C14.5858 11.25 14.25 10.9142 14.25 10.5Z" fill="#fff"/>
</svg>
