<svg width="24" height="24" viewBox="0 0 24 24" fill="none" xmlns="http://www.w3.org/2000/svg">
<path fillRule="evenodd" clipRule="evenodd" d="M3.27145 3.27145C4.53609 2.0068 6.45069 1.5 9 1.5H15C17.5493 1.5 19.4639 2.0068 20.7286 3.27145C21.9932 4.53609 22.5 6.45069 22.5 9V15C22.5 17.5493 21.9932 19.4639 20.7286 20.7286C19.4639 21.9932 17.5493 22.5 15 22.5H9C6.45069 22.5 4.53609 21.9932 3.27145 20.7286C2.0068 19.4639 1.5 17.5493 1.5 15V9C1.5 6.45069 2.0068 4.53609 3.27145 3.27145ZM3.97855 3.97855C2.9932 4.96391 2.5 6.54931 2.5 9V15C2.5 17.4507 2.9932 19.0361 3.97855 20.0214C4.96391 21.0068 6.54931 21.5 9 21.5H15C17.4507 21.5 19.0361 21.0068 20.0214 20.0214C21.0068 19.0361 21.5 17.4507 21.5 15V9C21.5 6.54931 21.0068 4.96391 20.0214 3.97855C19.0361 2.9932 17.4507 2.5 15 2.5H9C6.54931 2.5 4.96391 2.9932 3.97855 3.97855Z" fill="#fff"/>
<path fillRule="evenodd" clipRule="evenodd" d="M14.3347 6.51089C15.072 6.44059 15.8008 6.76869 16.5239 7.49695C17.2481 8.22138 17.5696 8.95081 17.4959 9.686C17.4249 10.3946 16.9964 10.9802 16.5232 11.4534L11.3332 16.6434C11.1822 16.7945 10.9836 16.9209 10.7954 17.0135C10.6067 17.1064 10.3876 17.1853 10.1804 17.2149L8.19969 17.495L8.19846 17.4951C7.70734 17.5633 7.23806 17.4304 6.90863 17.1009C6.5792 16.7715 6.44623 16.3022 6.51444 15.8111L6.51461 15.8099L6.79461 13.8299C6.82422 13.6226 6.90317 13.4029 6.99605 13.2141C7.08864 13.026 7.21507 12.8274 7.36612 12.6763L12.5561 7.48633C13.0344 7.00808 13.6234 6.57872 14.3347 6.51089ZM14.4296 7.50637C14.066 7.54105 13.685 7.77169 13.2632 8.19344L8.07323 13.3834C8.02429 13.4324 7.95572 13.5288 7.89331 13.6556C7.83127 13.7817 7.79514 13.8976 7.7847 13.9703C7.78468 13.9704 7.78471 13.9702 7.7847 13.9703L7.50493 15.9487C7.5049 15.9489 7.50496 15.9485 7.50493 15.9487C7.47333 16.1772 7.54023 16.3183 7.61574 16.3938C7.69123 16.4693 7.83176 16.5363 8.06027 16.5047C8.06006 16.5048 8.06048 16.5047 8.06027 16.5047L10.0389 16.2249C10.0389 16.2249 10.039 16.2249 10.0389 16.2249C10.1117 16.2145 10.2278 16.1783 10.3539 16.1163C10.4808 16.0538 10.5772 15.9853 10.6261 15.9363L15.8161 10.7463C16.2329 10.3295 16.4645 9.95013 16.5009 9.58626C16.5347 9.24916 16.4115 8.7988 15.8161 8.20343L15.8148 8.2021C15.2181 7.60086 14.7671 7.4742 14.4296 7.50637Z" fill="#fff"/>
<path fillRule="evenodd" clipRule="evenodd" d="M12.0351 8.09839C12.301 8.02387 12.577 8.17901 12.6515 8.44491C13.0447 9.84798 14.144 10.9555 15.5542 11.3482C15.8202 11.4222 15.9758 11.698 15.9017 11.964C15.8276 12.23 15.5519 12.3856 15.2859 12.3115C13.5361 11.8242 12.1754 10.4517 11.6886 8.71477C11.6141 8.44887 11.7692 8.17291 12.0351 8.09839Z" fill="#fff"/>
</svg>
