<svg width="24" height="24" viewBox="0 0 24 24" fill="none" xmlns="http://www.w3.org/2000/svg">
<path fillRule="evenodd" clipRule="evenodd" d="M10.7787 4.09452C10.2456 4.35375 9.60662 4.74925 8.69112 5.31743L6.89112 6.43456C6.02515 6.97201 5.42169 7.34752 4.97243 7.69157C4.53675 8.02523 4.29177 8.29621 4.12517 8.60058C3.95789 8.90619 3.85805 9.26663 3.80512 9.82995C3.75076 10.4084 3.75 11.1398 3.75 12.1835V13.5525C3.75 15.3284 3.75149 16.5873 3.87555 17.5418C3.99713 18.4772 4.22443 19.0061 4.59363 19.388C4.9594 19.7664 5.46069 19.9967 6.35313 20.1208C7.26981 20.2483 8.48103 20.25 10.2 20.25H13.8C15.519 20.25 16.7302 20.2483 17.6469 20.1208C18.5393 19.9967 19.0406 19.7664 19.4064 19.388C19.7756 19.0061 20.0029 18.4772 20.1245 17.5418C20.2485 16.5873 20.25 15.3284 20.25 13.5525V12.1835C20.25 11.1398 20.2492 10.4084 20.1949 9.82995C20.1419 9.26663 20.0421 8.90619 19.8748 8.60058C19.7082 8.29621 19.4632 8.02523 19.0276 7.69157C18.5783 7.34752 17.9749 6.97201 17.1089 6.43456L15.3089 5.31743C14.3934 4.74925 13.7544 4.35375 13.2213 4.09452C12.7036 3.84277 12.3444 3.75 12 3.75C11.6556 3.75 11.2964 3.84277 10.7787 4.09452ZM10.1227 2.74557C10.7567 2.43726 11.3473 2.25 12 2.25C12.6527 2.25 13.2433 2.43726 13.8773 2.74557C14.488 3.04257 15.1923 3.47967 16.0659 4.02186L17.9317 5.17985C18.7584 5.69287 19.4249 6.10655 19.9396 6.50068C20.4744 6.91027 20.8899 7.33104 21.1906 7.88036C21.4906 8.42842 21.6244 9.00972 21.6883 9.68962C21.75 10.3464 21.75 11.1483 21.75 12.1473V13.6069C21.75 15.3161 21.75 16.6727 21.6119 17.7351C21.4699 18.8278 21.17 19.7218 20.4848 20.4306C19.7962 21.1429 18.9217 21.458 17.8535 21.6065C16.8215 21.75 15.5057 21.75 13.8575 21.75H10.1425C8.49426 21.75 7.17851 21.75 6.14651 21.6065C5.07829 21.458 4.20385 21.1429 3.5152 20.4306C2.82998 19.7218 2.53008 18.8278 2.38806 17.7351C2.24997 16.6727 2.24998 15.3161 2.25 13.6069L2.25 12.1472C2.24999 11.1482 2.24998 10.3464 2.3117 9.68962C2.37559 9.00972 2.50939 8.42842 2.80939 7.88036C3.11007 7.33104 3.52558 6.91027 4.06041 6.50068C4.57505 6.10656 5.2416 5.69289 6.06823 5.17987L7.93408 4.02187C8.80768 3.47968 9.51196 3.04257 10.1227 2.74557Z" fill="#fff"/>
<path fillRule="evenodd" clipRule="evenodd" d="M8.69733 15.1534C8.94398 14.8206 9.4137 14.7508 9.74646 14.9975C10.3898 15.4743 11.1655 15.75 11.9999 15.75C12.8342 15.75 13.6099 15.4743 14.2532 14.9975C14.586 14.7508 15.0557 14.8206 15.3024 15.1534C15.549 15.4862 15.4792 15.9559 15.1465 16.2025C14.2591 16.8603 13.1733 17.25 11.9999 17.25C10.8264 17.25 9.74061 16.8603 8.85324 16.2025C8.52047 15.9559 8.45067 15.4862 8.69733 15.1534Z" fill="#fff"/>
</svg>
