<svg width="24" height="24" viewBox="0 0 24 24" fill="none" xmlns="http://www.w3.org/2000/svg">
<path d="M15.5189 16.5013C15.6939 16.3648 15.8526 16.2061 16.1701 15.8886L20.1275 11.9312C20.2231 11.8356 20.1793 11.6708 20.0515 11.6264C19.5844 11.4644 18.9767 11.1601 18.4083 10.5917C17.8399 10.0233 17.5356 9.41561 17.3736 8.94849C17.3292 8.82066 17.1644 8.77687 17.0688 8.87254L13.1114 12.8299C12.7939 13.1474 12.6352 13.3061 12.4987 13.4811C12.3377 13.6876 12.1996 13.9109 12.087 14.1473C11.9915 14.3476 11.9205 14.5606 11.7786 14.9865L11.5951 15.5368L11.3034 16.4118L11.0299 17.2323C10.9601 17.4419 11.0146 17.6729 11.1708 17.8292C11.3271 17.9854 11.5581 18.0399 11.7677 17.9701L12.5882 17.6966L13.4632 17.4049L14.0135 17.2214L14.0136 17.2214C14.4394 17.0795 14.6524 17.0085 14.8527 16.913C15.0891 16.8004 15.3124 16.6623 15.5189 16.5013Z" fill="#fff"/>
<path d="M21.3665 10.6922C22.2112 9.84754 22.2112 8.47812 21.3665 7.63348C20.5219 6.78884 19.1525 6.78884 18.3078 7.63348L18.1806 7.76071C18.0578 7.88348 18.0022 8.05496 18.0329 8.22586C18.0522 8.33336 18.0879 8.49053 18.153 8.67807C18.2831 9.05314 18.5288 9.54549 18.9917 10.0083C19.4545 10.4712 19.9469 10.7169 20.3219 10.847C20.5095 10.9121 20.6666 10.9478 20.7741 10.9671C20.945 10.9978 21.1165 10.9422 21.2393 10.8194L21.3665 10.6922Z" fill="#fff"/>
<path fillRule="evenodd" clipRule="evenodd" d="M3.17157 3.17157C2 4.34315 2 6.22876 2 10V14C2 17.7712 2 19.6569 3.17157 20.8284C4.34315 22 6.22876 22 10 22H12C15.7712 22 17.6569 22 18.8284 20.8284C19.9812 19.6756 19.9997 17.8316 20 14.1801L17.1817 16.9984C16.9119 17.2683 16.691 17.4894 16.4415 17.6841C16.1491 17.9121 15.8328 18.1076 15.4981 18.2671C15.2124 18.4032 14.9159 18.502 14.5538 18.6225L12.2421 19.3931C11.4935 19.6426 10.6682 19.4478 10.1102 18.8898C9.55226 18.3318 9.35743 17.5065 9.60696 16.7579L9.88046 15.9375L10.3556 14.5121L10.3775 14.4463C10.4981 14.0842 10.5968 13.7876 10.7329 13.5019C10.8924 13.1672 11.0879 12.8509 11.316 12.5586C11.5106 12.309 11.7317 12.0881 12.0017 11.8183L16.0081 7.81188L17.12 6.70004L17.2472 6.57282C17.9626 5.85741 18.9003 5.49981 19.838 5.5C19.6867 4.46945 19.3941 3.73727 18.8284 3.17157C17.6569 2 15.7712 2 12 2H10C6.22876 2 4.34315 2 3.17157 3.17157ZM6.25 9C6.25 8.58579 6.58579 8.25 7 8.25H13.5C13.9142 8.25 14.25 8.58579 14.25 9C14.25 9.41421 13.9142 9.75 13.5 9.75H7C6.58579 9.75 6.25 9.41421 6.25 9ZM6.25 13C6.25 12.5858 6.58579 12.25 7 12.25H9.5C9.91421 12.25 10.25 12.5858 10.25 13C10.25 13.4142 9.91421 13.75 9.5 13.75H7C6.58579 13.75 6.25 13.4142 6.25 13ZM6.25 17C6.25 16.5858 6.58579 16.25 7 16.25H8.5C8.91421 16.25 9.25 16.5858 9.25 17C9.25 17.4142 8.91421 17.75 8.5 17.75H7C6.58579 17.75 6.25 17.4142 6.25 17Z" fill="#fff"/>
</svg>
