<svg width="24" height="24" viewBox="0 0 24 24" fill="none" xmlns="http://www.w3.org/2000/svg">
<path fillRule="evenodd" clipRule="evenodd" d="M4.24987 18.7494C4.24982 18.7494 4.24976 18.7484 4.24985 18.7462C4.24996 18.7483 4.24992 18.7494 4.24987 18.7494ZM4.25788 18.697C4.25813 18.6959 4.2584 18.6947 4.25867 18.6936C4.27904 18.6082 4.33489 18.4683 4.45512 18.2821C4.69423 17.912 5.13117 17.4471 5.78465 16.9896C7.08269 16.0808 9.16728 15.25 11.9999 15.25C14.8326 15.25 16.9172 16.0807 18.2153 16.9894C18.8688 17.4469 19.3057 17.9118 19.5448 18.2819C19.665 18.468 19.7208 18.6079 19.7412 18.6934C19.7415 18.6946 19.7418 18.6958 19.742 18.6969C19.687 18.7448 19.5523 18.8422 19.2577 18.9592C18.8555 19.1189 18.2852 19.2644 17.5601 19.3852C16.1155 19.6258 14.1732 19.75 11.9999 19.75C9.8266 19.75 7.88428 19.6258 6.43973 19.3852C5.71465 19.2644 5.14434 19.1189 4.7421 18.9592C4.44771 18.8423 4.313 18.7449 4.25788 18.697ZM19.75 18.7492C19.75 18.7492 19.7499 18.7481 19.75 18.7461C19.7501 18.7482 19.7501 18.7493 19.75 18.7492ZM4.92437 15.7608C6.48322 14.6694 8.87024 13.75 11.9999 13.75C15.1296 13.75 17.5166 14.6693 19.0755 15.7606C19.8505 16.3031 20.4383 16.9007 20.8048 17.4681C20.9874 17.7507 21.1295 18.0483 21.2004 18.3457C21.2695 18.6359 21.286 18.996 21.1182 19.3337C20.8621 19.8491 20.3116 20.1546 19.8114 20.3533C19.2693 20.5686 18.5822 20.7356 17.8066 20.8648C16.2497 21.1242 14.2171 21.25 11.9999 21.25C9.78271 21.25 7.75015 21.1242 6.19325 20.8648C5.4176 20.7356 4.73054 20.5686 4.18848 20.3533C3.68823 20.1546 3.13774 19.8491 2.88165 19.3337C2.71385 18.996 2.7304 18.6358 2.79956 18.3457C2.87045 18.0484 3.01258 17.7508 3.19514 17.4682C3.5616 16.9009 4.14941 16.3033 4.92437 15.7608Z" fill="#fff"/>
<path fillRule="evenodd" clipRule="evenodd" d="M12 11C13.6569 11 15 9.65685 15 8C15 6.34315 13.6569 5 12 5C10.3431 5 9 6.34315 9 8C9 9.65685 10.3431 11 12 11ZM12 12.5C14.4853 12.5 16.5 10.4853 16.5 8C16.5 5.51472 14.4853 3.5 12 3.5C9.51472 3.5 7.5 5.51472 7.5 8C7.5 10.4853 9.51472 12.5 12 12.5Z" fill="#fff"/>
</svg>
