<svg width="64" height="64" viewBox="0 0 64 64" fill="none" xmlns="http://www.w3.org/2000/svg">
<g clip-path="url(#clip0_307_3154)">
<path fill-rule="evenodd" clip-rule="evenodd" d="M26.3555 32.4317C26.3555 21.953 34.7144 13.3334 45.179 13.3334C55.6436 13.3334 64.0025 21.953 64.0025 32.4317C64.0025 35.4699 63.3014 38.3514 62.0496 40.9112C61.6669 41.6936 60.8565 43.0603 60.3814 43.8488L62.0053 47.2493C62.7633 48.8367 61.5962 50.6667 59.8243 50.6667H45.179C34.9112 50.6667 26.3555 43.1034 26.3555 32.4317Z" fill="#826DFF"/>
<path fill-rule="evenodd" clip-rule="evenodd" d="M37.6465 32.4317C37.6465 21.953 29.2876 13.3334 18.823 13.3334C8.35832 13.3334 -0.000576019 21.953 -0.000576019 32.4317C-0.000576019 35.4699 0.700562 38.3514 1.95239 40.9112C2.33506 41.6936 3.14545 43.0603 3.62056 43.8488L1.99669 47.2493C1.23866 48.8367 2.40571 50.6667 4.1776 50.6667H18.823C29.0907 50.6667 37.6465 43.1034 37.6465 32.4317Z" fill="#BF6FFF"/>
<path fill-rule="evenodd" clip-rule="evenodd" d="M19.1945 30.8885C19.8135 30.0603 20.9924 29.8866 21.8276 30.5005C24.7227 32.6286 28.227 33.8668 32.0008 33.8668C35.7746 33.8668 39.2789 32.6286 42.174 30.5005C43.0092 29.8866 44.1881 30.0603 44.8071 30.8885C45.4262 31.7167 45.251 32.8858 44.4158 33.4997C40.9081 36.0781 36.6256 37.6001 32.0008 37.6001C27.376 37.6001 23.0935 36.0781 19.5858 33.4997C18.7506 32.8858 18.5754 31.7167 19.1945 30.8885Z" fill="white"/>
</g>
<defs>
<clipPath id="clip0_307_3154">
<rect width="64" height="64" fill="white"/>
</clipPath>
</defs>
</svg>
